<?xml version="1.0" encoding="UTF-8" standalone="no"?>
<!DOCTYPE svg PUBLIC "-//W3C//DTD SVG 1.1//EN"
 "http://www.w3.org/Graphics/SVG/1.1/DTD/svg11.dtd">
<!-- Generated by graphviz version 2.43.0 (0)
 -->
<!-- Title: G Pages: 1 -->
<svg width="658pt" height="1077pt"
 viewBox="0.00 0.00 658.39 1077.00" xmlns="http://www.w3.org/2000/svg" xmlns:xlink="http://www.w3.org/1999/xlink">
<g id="graph0" class="graph" transform="scale(1 1) rotate(0) translate(4 1073)">
<title>G</title>
<polygon fill="white" stroke="transparent" points="-4,4 -4,-1073 654.39,-1073 654.39,4 -4,4"/>
<g id="clust1" class="cluster">
<title>cluster_Global</title>
<path fill="none" stroke="gray" d="M389.56,-8C389.56,-8 630.39,-8 630.39,-8 636.39,-8 642.39,-14 642.39,-20 642.39,-20 642.39,-1049 642.39,-1049 642.39,-1055 636.39,-1061 630.39,-1061 630.39,-1061 389.56,-1061 389.56,-1061 383.56,-1061 377.56,-1055 377.56,-1049 377.56,-1049 377.56,-20 377.56,-20 377.56,-14 383.56,-8 389.56,-8"/>
<text text-anchor="middle" x="509.97" y="-1048.2" font-family="Times,serif" font-size="11.00" fill="gray">Global</text>
</g>
<g id="clust2" class="cluster">
<title>cluster_\Linusx</title>
<path fill="none" stroke="gray" d="M397.56,-16C397.56,-16 622.39,-16 622.39,-16 628.39,-16 634.39,-22 634.39,-28 634.39,-28 634.39,-1022 634.39,-1022 634.39,-1028 628.39,-1034 622.39,-1034 622.39,-1034 397.56,-1034 397.56,-1034 391.56,-1034 385.56,-1028 385.56,-1022 385.56,-1022 385.56,-28 385.56,-28 385.56,-22 391.56,-16 397.56,-16"/>
<text text-anchor="middle" x="509.97" y="-1021.2" font-family="Times,serif" font-size="11.00" fill="gray">Linusx</text>
</g>
<g id="clust3" class="cluster">
<title>cluster_\Linusx\Empyr</title>
<path fill="none" stroke="gray" d="M405.56,-24C405.56,-24 614.39,-24 614.39,-24 620.39,-24 626.39,-30 626.39,-36 626.39,-36 626.39,-995 626.39,-995 626.39,-1001 620.39,-1007 614.39,-1007 614.39,-1007 405.56,-1007 405.56,-1007 399.56,-1007 393.56,-1001 393.56,-995 393.56,-995 393.56,-36 393.56,-36 393.56,-30 399.56,-24 405.56,-24"/>
<text text-anchor="middle" x="509.97" y="-994.2" font-family="Times,serif" font-size="11.00" fill="gray">Empyr</text>
</g>
<g id="clust4" class="cluster">
<title>cluster_\Linusx\Empyr\Controllers</title>
<path fill="none" stroke="gray" d="M439.96,-423C439.96,-423 579.99,-423 579.99,-423 585.99,-423 591.99,-429 591.99,-435 591.99,-435 591.99,-968 591.99,-968 591.99,-974 585.99,-980 579.99,-980 579.99,-980 439.96,-980 439.96,-980 433.96,-980 427.96,-974 427.96,-968 427.96,-968 427.96,-435 427.96,-435 427.96,-429 433.96,-423 439.96,-423"/>
<text text-anchor="middle" x="509.97" y="-967.2" font-family="Times,serif" font-size="11.00" fill="gray">Controllers</text>
</g>
<g id="clust5" class="cluster">
<title>cluster_\Linusx\Empyr\Facades</title>
<path fill="none" stroke="gray" d="M459.77,-290C459.77,-290 560.18,-290 560.18,-290 566.18,-290 572.18,-296 572.18,-302 572.18,-302 572.18,-403 572.18,-403 572.18,-409 566.18,-415 560.18,-415 560.18,-415 459.77,-415 459.77,-415 453.77,-415 447.77,-409 447.77,-403 447.77,-403 447.77,-302 447.77,-302 447.77,-296 453.77,-290 459.77,-290"/>
<text text-anchor="middle" x="509.97" y="-402.2" font-family="Times,serif" font-size="11.00" fill="gray">Facades</text>
</g>
<g id="clust6" class="cluster">
<title>cluster_\Linusx\Empyr\Exceptions</title>
<path fill="none" stroke="gray" d="M413.56,-157C413.56,-157 606.39,-157 606.39,-157 612.39,-157 618.39,-163 618.39,-169 618.39,-169 618.39,-270 618.39,-270 618.39,-276 612.39,-282 606.39,-282 606.39,-282 413.56,-282 413.56,-282 407.56,-282 401.56,-276 401.56,-270 401.56,-270 401.56,-169 401.56,-169 401.56,-163 407.56,-157 413.56,-157"/>
<text text-anchor="middle" x="509.97" y="-269.2" font-family="Times,serif" font-size="11.00" fill="gray">Exceptions</text>
</g>
<g id="clust7" class="cluster">
<title>cluster_\Linusx\Empyr\Providers</title>
<path fill="none" stroke="gray" d="M439.96,-78C439.96,-78 579.99,-78 579.99,-78 585.99,-78 591.99,-84 591.99,-90 591.99,-90 591.99,-137 591.99,-137 591.99,-143 585.99,-149 579.99,-149 579.99,-149 439.96,-149 439.96,-149 433.96,-149 427.96,-143 427.96,-137 427.96,-137 427.96,-90 427.96,-90 427.96,-84 433.96,-78 439.96,-78"/>
<text text-anchor="middle" x="509.97" y="-136.2" font-family="Times,serif" font-size="11.00" fill="gray">Providers</text>
</g>
<!-- \\Linusx\\Empyr\\Controllers\\EmpyrOffer -->
<g id="node1" class="node">
<title>\\Linusx\\Empyr\\Controllers\\EmpyrOffer</title>
<polygon fill="none" stroke="black" points="550.99,-953 468.96,-953 468.96,-917 550.99,-917 550.99,-953"/>
<text text-anchor="middle" x="509.97" y="-931.7" font-family="Courier,monospace" font-size="11.00">EmpyrOffer</text>
</g>
<!-- \\Linusx\\Empyr\\Controllers\\EmpyrController -->
<g id="node17" class="node">
<title>\\Linusx\\Empyr\\Controllers\\EmpyrController</title>
<ellipse fill="none" stroke="black" cx="168.78" cy="-692" rx="168.56" ry="18"/>
<text text-anchor="middle" x="168.78" y="-687.8" font-family="Times,serif" font-size="14.00" fill="gray">\Linusx\Empyr\Controllers\EmpyrController</text>
</g>
<!-- \\Linusx\\Empyr\\Controllers\\EmpyrOffer&#45;&gt;\\Linusx\\Empyr\\Controllers\\EmpyrController -->
<g id="edge1" class="edge">
<title>\\Linusx\\Empyr\\Controllers\\EmpyrOffer&#45;&gt;\\Linusx\\Empyr\\Controllers\\EmpyrController</title>
<path fill="none" stroke="black" d="M468.89,-932.97C441.7,-930.15 405.71,-923.51 377.56,-908 291.08,-860.34 218.64,-764.65 186.94,-718.32"/>
<polygon fill="none" stroke="black" points="189.82,-716.34 181.33,-710.01 184.02,-720.25 189.82,-716.34"/>
</g>
<!-- \\Linusx\\Empyr\\Controllers\\EmpyrInvoice -->
<g id="node2" class="node">
<title>\\Linusx\\Empyr\\Controllers\\EmpyrInvoice</title>
<polygon fill="none" stroke="black" points="557.69,-899 462.26,-899 462.26,-863 557.69,-863 557.69,-899"/>
<text text-anchor="middle" x="509.97" y="-877.7" font-family="Courier,monospace" font-size="11.00">EmpyrInvoice</text>
</g>
<!-- \\Linusx\\Empyr\\Controllers\\EmpyrInvoice&#45;&gt;\\Linusx\\Empyr\\Controllers\\EmpyrController -->
<g id="edge3" class="edge">
<title>\\Linusx\\Empyr\\Controllers\\EmpyrInvoice&#45;&gt;\\Linusx\\Empyr\\Controllers\\EmpyrController</title>
<path fill="none" stroke="black" d="M462.34,-876.7C436.46,-873.03 404.21,-866.3 377.56,-854 302.92,-819.55 230.68,-753.63 194.25,-717.4"/>
<polygon fill="none" stroke="black" points="196.57,-714.77 187.03,-710.15 191.6,-719.7 196.57,-714.77"/>
</g>
<!-- \\Linusx\\Empyr\\Controllers\\EmpyrUser -->
<g id="node3" class="node">
<title>\\Linusx\\Empyr\\Controllers\\EmpyrUser</title>
<polygon fill="none" stroke="black" points="547.89,-845 472.06,-845 472.06,-809 547.89,-809 547.89,-845"/>
<text text-anchor="middle" x="509.97" y="-823.7" font-family="Courier,monospace" font-size="11.00">EmpyrUser</text>
</g>
<!-- \\Linusx\\Empyr\\Controllers\\EmpyrUser&#45;&gt;\\Linusx\\Empyr\\Controllers\\EmpyrController -->
<g id="edge4" class="edge">
<title>\\Linusx\\Empyr\\Controllers\\EmpyrUser&#45;&gt;\\Linusx\\Empyr\\Controllers\\EmpyrController</title>
<path fill="none" stroke="black" d="M472.26,-822.24C445.49,-818.11 408.62,-811.02 377.56,-800 314.69,-777.69 247.05,-739.61 206.58,-715.14"/>
<polygon fill="none" stroke="black" points="208.24,-712.05 197.88,-709.83 204.6,-718.03 208.24,-712.05"/>
</g>
<!-- \\Linusx\\Empyr\\Controllers\\EmpyrPayment -->
<g id="node4" class="node">
<title>\\Linusx\\Empyr\\Controllers\\EmpyrPayment</title>
<polygon fill="none" stroke="black" points="557.69,-791 462.26,-791 462.26,-755 557.69,-755 557.69,-791"/>
<text text-anchor="middle" x="509.97" y="-769.7" font-family="Courier,monospace" font-size="11.00">EmpyrPayment</text>
</g>
<!-- \\Linusx\\Empyr\\Controllers\\EmpyrPayment&#45;&gt;\\Linusx\\Empyr\\Controllers\\EmpyrController -->
<g id="edge5" class="edge">
<title>\\Linusx\\Empyr\\Controllers\\EmpyrPayment&#45;&gt;\\Linusx\\Empyr\\Controllers\\EmpyrController</title>
<path fill="none" stroke="black" d="M462.32,-764.02C437.15,-759.03 405.58,-752.51 377.56,-746 331.78,-735.36 280.69,-722.1 240.62,-711.38"/>
<polygon fill="none" stroke="black" points="241.51,-707.99 230.94,-708.78 239.69,-714.75 241.51,-707.99"/>
</g>
<!-- \\Linusx\\Empyr\\Controllers\\EmpyrSubscription -->
<g id="node5" class="node">
<title>\\Linusx\\Empyr\\Controllers\\EmpyrSubscription</title>
<polygon fill="none" stroke="black" points="574.19,-737 445.76,-737 445.76,-701 574.19,-701 574.19,-737"/>
<text text-anchor="middle" x="509.97" y="-715.7" font-family="Courier,monospace" font-size="11.00">EmpyrSubscription</text>
</g>
<!-- \\Linusx\\Empyr\\Controllers\\EmpyrSubscription&#45;&gt;\\Linusx\\Empyr\\Controllers\\EmpyrController -->
<g id="edge6" class="edge">
<title>\\Linusx\\Empyr\\Controllers\\EmpyrSubscription&#45;&gt;\\Linusx\\Empyr\\Controllers\\EmpyrController</title>
<path fill="none" stroke="black" d="M445.57,-713.95C408.59,-711.01 360.34,-707.17 314.56,-703.52"/>
<polygon fill="none" stroke="black" points="314.77,-700.03 304.53,-702.73 314.22,-707.01 314.77,-700.03"/>
</g>
<!-- \\Linusx\\Empyr\\Controllers\\EmpyrVenue -->
<g id="node6" class="node">
<title>\\Linusx\\Empyr\\Controllers\\EmpyrVenue</title>
<polygon fill="none" stroke="black" points="550.99,-683 468.96,-683 468.96,-647 550.99,-647 550.99,-683"/>
<text text-anchor="middle" x="509.97" y="-661.7" font-family="Courier,monospace" font-size="11.00">EmpyrVenue</text>
</g>
<!-- \\Linusx\\Empyr\\Controllers\\EmpyrVenue&#45;&gt;\\Linusx\\Empyr\\Controllers\\EmpyrController -->
<g id="edge7" class="edge">
<title>\\Linusx\\Empyr\\Controllers\\EmpyrVenue&#45;&gt;\\Linusx\\Empyr\\Controllers\\EmpyrController</title>
<path fill="none" stroke="black" d="M468.73,-668.2C430.49,-671.25 370.65,-676.01 314.52,-680.48"/>
<polygon fill="none" stroke="black" points="314.14,-677 304.45,-681.28 314.7,-683.98 314.14,-677"/>
</g>
<!-- \\Linusx\\Empyr\\Controllers\\EmpyrUtility -->
<g id="node7" class="node">
<title>\\Linusx\\Empyr\\Controllers\\EmpyrUtility</title>
<polygon fill="none" stroke="black" points="557.69,-629 462.26,-629 462.26,-593 557.69,-593 557.69,-629"/>
<text text-anchor="middle" x="509.97" y="-607.7" font-family="Courier,monospace" font-size="11.00">EmpyrUtility</text>
</g>
<!-- \\Linusx\\Empyr\\Controllers\\EmpyrUtility&#45;&gt;\\Linusx\\Empyr\\Controllers\\EmpyrController -->
<g id="edge9" class="edge">
<title>\\Linusx\\Empyr\\Controllers\\EmpyrUtility&#45;&gt;\\Linusx\\Empyr\\Controllers\\EmpyrController</title>
<path fill="none" stroke="black" d="M462.32,-619.98C437.15,-624.97 405.58,-631.49 377.56,-638 331.78,-648.64 280.69,-661.9 240.62,-672.62"/>
<polygon fill="none" stroke="black" points="239.69,-669.25 230.94,-675.22 241.51,-676.01 239.69,-669.25"/>
</g>
<!-- \\Linusx\\Empyr\\Controllers\\EmpyrFundraiser -->
<g id="node8" class="node">
<title>\\Linusx\\Empyr\\Controllers\\EmpyrFundraiser</title>
<polygon fill="none" stroke="black" points="567.49,-575 452.46,-575 452.46,-539 567.49,-539 567.49,-575"/>
<text text-anchor="middle" x="509.97" y="-553.7" font-family="Courier,monospace" font-size="11.00">EmpyrFundraiser</text>
</g>
<!-- \\Linusx\\Empyr\\Controllers\\EmpyrFundraiser&#45;&gt;\\Linusx\\Empyr\\Controllers\\EmpyrController -->
<g id="edge10" class="edge">
<title>\\Linusx\\Empyr\\Controllers\\EmpyrFundraiser&#45;&gt;\\Linusx\\Empyr\\Controllers\\EmpyrController</title>
<path fill="none" stroke="black" d="M452.41,-565.09C428.86,-569.35 401.49,-575.51 377.56,-584 314.69,-606.31 247.05,-644.39 206.58,-668.86"/>
<polygon fill="none" stroke="black" points="204.6,-665.97 197.88,-674.17 208.24,-671.95 204.6,-665.97"/>
</g>
<!-- \\Linusx\\Empyr\\Controllers\\EmpyrBillingAccounts -->
<g id="node9" class="node">
<title>\\Linusx\\Empyr\\Controllers\\EmpyrBillingAccounts</title>
<polygon fill="none" stroke="black" points="584,-521 435.95,-521 435.95,-485 584,-485 584,-521"/>
<text text-anchor="middle" x="509.97" y="-499.7" font-family="Courier,monospace" font-size="11.00">EmpyrBillingAccounts</text>
</g>
<!-- \\Linusx\\Empyr\\Controllers\\EmpyrBillingAccounts&#45;&gt;\\Linusx\\Empyr\\Controllers\\EmpyrController -->
<g id="edge12" class="edge">
<title>\\Linusx\\Empyr\\Controllers\\EmpyrBillingAccounts&#45;&gt;\\Linusx\\Empyr\\Controllers\\EmpyrController</title>
<path fill="none" stroke="black" d="M435.81,-511.87C416.3,-515.87 395.64,-521.65 377.56,-530 302.92,-564.45 230.68,-630.37 194.25,-666.6"/>
<polygon fill="none" stroke="black" points="191.6,-664.3 187.03,-673.85 196.57,-669.23 191.6,-664.3"/>
</g>
<!-- \\Linusx\\Empyr\\Controllers\\EmpyrReport -->
<g id="node10" class="node">
<title>\\Linusx\\Empyr\\Controllers\\EmpyrReport</title>
<polygon fill="none" stroke="black" points="554.09,-467 465.86,-467 465.86,-431 554.09,-431 554.09,-467"/>
<text text-anchor="middle" x="509.97" y="-445.7" font-family="Courier,monospace" font-size="11.00">EmpyrReport</text>
</g>
<!-- \\Linusx\\Empyr\\Controllers\\EmpyrReport&#45;&gt;\\Linusx\\Empyr\\Controllers\\EmpyrController -->
<g id="edge13" class="edge">
<title>\\Linusx\\Empyr\\Controllers\\EmpyrReport&#45;&gt;\\Linusx\\Empyr\\Controllers\\EmpyrController</title>
<path fill="none" stroke="black" d="M465.6,-451.39C438.84,-454.39 404.59,-461.1 377.56,-476 291.08,-523.66 218.64,-619.35 186.94,-665.68"/>
<polygon fill="none" stroke="black" points="184.02,-663.75 181.33,-673.99 189.82,-667.66 184.02,-663.75"/>
</g>
<!-- \\Linusx\\Empyr\\Facades\\Empyr -->
<g id="node11" class="node">
<title>\\Linusx\\Empyr\\Facades\\Empyr</title>
<polygon fill="none" stroke="black" points="536.97,-388 482.97,-388 482.97,-352 536.97,-352 536.97,-388"/>
<text text-anchor="middle" x="509.97" y="-366.7" font-family="Courier,monospace" font-size="11.00">Empyr</text>
</g>
<!-- \\Illuminate\\Support\\Facades\\Facade -->
<g id="node18" class="node">
<title>\\Illuminate\\Support\\Facades\\Facade</title>
<ellipse fill="none" stroke="black" cx="168.78" cy="-343" rx="137.62" ry="18"/>
<text text-anchor="middle" x="168.78" y="-338.8" font-family="Times,serif" font-size="14.00" fill="gray">\Illuminate\Support\Facades\Facade</text>
</g>
<!-- \\Linusx\\Empyr\\Facades\\Empyr&#45;&gt;\\Illuminate\\Support\\Facades\\Facade -->
<g id="edge2" class="edge">
<title>\\Linusx\\Empyr\\Facades\\Empyr&#45;&gt;\\Illuminate\\Support\\Facades\\Facade</title>
<path fill="none" stroke="black" d="M482.92,-367.93C443.3,-364.77 365.27,-358.56 297.02,-353.13"/>
<polygon fill="none" stroke="black" points="297.27,-349.64 287.02,-352.33 296.71,-356.62 297.27,-349.64"/>
</g>
<!-- \\Linusx\\Empyr\\Facades\\EmpyrPublisher -->
<g id="node12" class="node">
<title>\\Linusx\\Empyr\\Facades\\EmpyrPublisher</title>
<polygon fill="none" stroke="black" points="564.39,-334 455.56,-334 455.56,-298 564.39,-298 564.39,-334"/>
<text text-anchor="middle" x="509.97" y="-312.7" font-family="Courier,monospace" font-size="11.00">EmpyrPublisher</text>
</g>
<!-- \\Linusx\\Empyr\\Facades\\EmpyrPublisher&#45;&gt;\\Illuminate\\Support\\Facades\\Facade -->
<g id="edge15" class="edge">
<title>\\Linusx\\Empyr\\Facades\\EmpyrPublisher&#45;&gt;\\Illuminate\\Support\\Facades\\Facade</title>
<path fill="none" stroke="black" d="M455.6,-320.25C413.1,-323.63 351.83,-328.51 296.91,-332.88"/>
<polygon fill="none" stroke="black" points="296.43,-329.41 286.74,-333.69 296.98,-336.39 296.43,-329.41"/>
</g>
<!-- \\Linusx\\Empyr\\Exceptions\\EmpyrMissingRequiredFields -->
<g id="node13" class="node">
<title>\\Linusx\\Empyr\\Exceptions\\EmpyrMissingRequiredFields</title>
<polygon fill="none" stroke="black" points="603.6,-255 416.35,-255 416.35,-219 603.6,-219 603.6,-255"/>
<text text-anchor="middle" x="509.97" y="-233.7" font-family="Courier,monospace" font-size="11.00">EmpyrMissingRequiredFields</text>
</g>
<!-- \\Exception -->
<g id="node19" class="node">
<title>\\Exception</title>
<ellipse fill="none" stroke="black" cx="168.78" cy="-210" rx="48.33" ry="18"/>
<text text-anchor="middle" x="168.78" y="-205.8" font-family="Times,serif" font-size="14.00" fill="gray">\Exception</text>
</g>
<!-- \\Linusx\\Empyr\\Exceptions\\EmpyrMissingRequiredFields&#45;&gt;\\Exception -->
<g id="edge8" class="edge">
<title>\\Linusx\\Empyr\\Exceptions\\EmpyrMissingRequiredFields&#45;&gt;\\Exception</title>
<path fill="none" stroke="black" d="M416.29,-229.62C355.6,-224.79 278.25,-218.63 226.53,-214.52"/>
<polygon fill="none" stroke="black" points="226.79,-211.03 216.54,-213.72 226.23,-218 226.79,-211.03"/>
</g>
<!-- \\Linusx\\Empyr\\Exceptions\\EmpyrNotPublisherCredentials -->
<g id="node14" class="node">
<title>\\Linusx\\Empyr\\Exceptions\\EmpyrNotPublisherCredentials</title>
<polygon fill="none" stroke="black" points="610.3,-201 409.64,-201 409.64,-165 610.3,-165 610.3,-201"/>
<text text-anchor="middle" x="509.97" y="-179.7" font-family="Courier,monospace" font-size="11.00">EmpyrNotPublisherCredentials</text>
</g>
<!-- \\Linusx\\Empyr\\Exceptions\\EmpyrNotPublisherCredentials&#45;&gt;\\Exception -->
<g id="edge14" class="edge">
<title>\\Linusx\\Empyr\\Exceptions\\EmpyrNotPublisherCredentials&#45;&gt;\\Exception</title>
<path fill="none" stroke="black" d="M409.5,-190.92C350,-195.65 276.53,-201.5 226.73,-205.47"/>
<polygon fill="none" stroke="black" points="226.16,-202 216.47,-206.28 226.72,-208.98 226.16,-202"/>
</g>
<!-- \\Linusx\\Empyr\\Providers\\EmpyrServiceProvider -->
<g id="node15" class="node">
<title>\\Linusx\\Empyr\\Providers\\EmpyrServiceProvider</title>
<polygon fill="none" stroke="black" points="584,-122 435.95,-122 435.95,-86 584,-86 584,-122"/>
<text text-anchor="middle" x="509.97" y="-100.7" font-family="Courier,monospace" font-size="11.00">EmpyrServiceProvider</text>
</g>
<!-- \\Illuminate\\Support\\ServiceProvider -->
<g id="node20" class="node">
<title>\\Illuminate\\Support\\ServiceProvider</title>
<ellipse fill="none" stroke="black" cx="168.78" cy="-104" rx="138.61" ry="18"/>
<text text-anchor="middle" x="168.78" y="-99.8" font-family="Times,serif" font-size="14.00" fill="gray">\Illuminate\Support\ServiceProvider</text>
</g>
<!-- \\Linusx\\Empyr\\Providers\\EmpyrServiceProvider&#45;&gt;\\Illuminate\\Support\\ServiceProvider -->
<g id="edge11" class="edge">
<title>\\Linusx\\Empyr\\Providers\\EmpyrServiceProvider&#45;&gt;\\Illuminate\\Support\\ServiceProvider</title>
<path fill="none" stroke="black" d="M435.79,-104C401.25,-104 358.71,-104 317.87,-104"/>
<polygon fill="none" stroke="black" points="317.8,-100.5 307.8,-104 317.8,-107.5 317.8,-100.5"/>
</g>
<!-- \\Linusx\\Empyr\\Empyr -->
<g id="node16" class="node">
<title>\\Linusx\\Empyr\\Empyr</title>
<polygon fill="none" stroke="black" points="536.97,-68 482.97,-68 482.97,-32 536.97,-32 536.97,-68"/>
<text text-anchor="middle" x="509.97" y="-46.7" font-family="Courier,monospace" font-size="11.00">Empyr</text>
</g>
</g>
</svg>
