<?xml version="1.0" encoding="UTF-8" standalone="no"?>
<!DOCTYPE svg PUBLIC "-//W3C//DTD SVG 1.1//EN"
 "http://www.w3.org/Graphics/SVG/1.1/DTD/svg11.dtd">
<!-- Generated by graphviz version 2.43.0 (0)
 -->
<!-- Title: G Pages: 1 -->
<svg width="645pt" height="1077pt"
 viewBox="0.00 0.00 645.19 1077.00" xmlns="http://www.w3.org/2000/svg" xmlns:xlink="http://www.w3.org/1999/xlink">
<g id="graph0" class="graph" transform="scale(1 1) rotate(0) translate(4 1073)">
<title>G</title>
<polygon fill="white" stroke="transparent" points="-4,4 -4,-1073 641.19,-1073 641.19,4 -4,4"/>
<g id="clust1" class="cluster">
<title>cluster_Global</title>
<path fill="none" stroke="gray" d="M389.56,-8C389.56,-8 617.19,-8 617.19,-8 623.19,-8 629.19,-14 629.19,-20 629.19,-20 629.19,-1049 629.19,-1049 629.19,-1055 623.19,-1061 617.19,-1061 617.19,-1061 389.56,-1061 389.56,-1061 383.56,-1061 377.56,-1055 377.56,-1049 377.56,-1049 377.56,-20 377.56,-20 377.56,-14 383.56,-8 389.56,-8"/>
<text text-anchor="middle" x="503.37" y="-1048.2" font-family="Times,serif" font-size="11.00" fill="gray">Global</text>
</g>
<g id="clust2" class="cluster">
<title>cluster_\Linusx</title>
<path fill="none" stroke="gray" d="M397.56,-16C397.56,-16 609.19,-16 609.19,-16 615.19,-16 621.19,-22 621.19,-28 621.19,-28 621.19,-1022 621.19,-1022 621.19,-1028 615.19,-1034 609.19,-1034 609.19,-1034 397.56,-1034 397.56,-1034 391.56,-1034 385.56,-1028 385.56,-1022 385.56,-1022 385.56,-28 385.56,-28 385.56,-22 391.56,-16 397.56,-16"/>
<text text-anchor="middle" x="503.37" y="-1021.2" font-family="Times,serif" font-size="11.00" fill="gray">Linusx</text>
</g>
<g id="clust3" class="cluster">
<title>cluster_\Linusx\Empyr</title>
<path fill="none" stroke="gray" d="M405.56,-24C405.56,-24 601.19,-24 601.19,-24 607.19,-24 613.19,-30 613.19,-36 613.19,-36 613.19,-995 613.19,-995 613.19,-1001 607.19,-1007 601.19,-1007 601.19,-1007 405.56,-1007 405.56,-1007 399.56,-1007 393.56,-1001 393.56,-995 393.56,-995 393.56,-36 393.56,-36 393.56,-30 399.56,-24 405.56,-24"/>
<text text-anchor="middle" x="503.37" y="-994.2" font-family="Times,serif" font-size="11.00" fill="gray">Empyr</text>
</g>
<g id="clust4" class="cluster">
<title>cluster_\Linusx\Empyr\Providers</title>
<path fill="none" stroke="gray" d="M433.36,-909C433.36,-909 573.38,-909 573.38,-909 579.38,-909 585.38,-915 585.38,-921 585.38,-921 585.38,-968 585.38,-968 585.38,-974 579.38,-980 573.38,-980 573.38,-980 433.36,-980 433.36,-980 427.36,-980 421.36,-974 421.36,-968 421.36,-968 421.36,-921 421.36,-921 421.36,-915 427.36,-909 433.36,-909"/>
<text text-anchor="middle" x="503.37" y="-967.2" font-family="Times,serif" font-size="11.00" fill="gray">Providers</text>
</g>
<g id="clust5" class="cluster">
<title>cluster_\Linusx\Empyr\Exceptions</title>
<path fill="none" stroke="gray" d="M413.56,-776C413.56,-776 593.19,-776 593.19,-776 599.19,-776 605.19,-782 605.19,-788 605.19,-788 605.19,-889 605.19,-889 605.19,-895 599.19,-901 593.19,-901 593.19,-901 413.56,-901 413.56,-901 407.56,-901 401.56,-895 401.56,-889 401.56,-889 401.56,-788 401.56,-788 401.56,-782 407.56,-776 413.56,-776"/>
<text text-anchor="middle" x="503.37" y="-888.2" font-family="Times,serif" font-size="11.00" fill="gray">Exceptions</text>
</g>
<g id="clust6" class="cluster">
<title>cluster_\Linusx\Empyr\Facades</title>
<path fill="none" stroke="gray" d="M459.77,-643C459.77,-643 546.98,-643 546.98,-643 552.98,-643 558.98,-649 558.98,-655 558.98,-655 558.98,-756 558.98,-756 558.98,-762 552.98,-768 546.98,-768 546.98,-768 459.77,-768 459.77,-768 453.77,-768 447.77,-762 447.77,-756 447.77,-756 447.77,-655 447.77,-655 447.77,-649 453.77,-643 459.77,-643"/>
<text text-anchor="middle" x="503.37" y="-755.2" font-family="Times,serif" font-size="11.00" fill="gray">Facades</text>
</g>
<g id="clust7" class="cluster">
<title>cluster_\Linusx\Empyr\Controllers</title>
<path fill="none" stroke="gray" d="M433.36,-78C433.36,-78 573.38,-78 573.38,-78 579.38,-78 585.38,-84 585.38,-90 585.38,-90 585.38,-623 585.38,-623 585.38,-629 579.38,-635 573.38,-635 573.38,-635 433.36,-635 433.36,-635 427.36,-635 421.36,-629 421.36,-623 421.36,-623 421.36,-90 421.36,-90 421.36,-84 427.36,-78 433.36,-78"/>
<text text-anchor="middle" x="503.37" y="-622.2" font-family="Times,serif" font-size="11.00" fill="gray">Controllers</text>
</g>
<!-- \\Linusx\\Empyr\\Providers\\EmpyrServiceProvider -->
<g id="node1" class="node">
<title>\\Linusx\\Empyr\\Providers\\EmpyrServiceProvider</title>
<polygon fill="none" stroke="black" points="577.39,-953 429.35,-953 429.35,-917 577.39,-917 577.39,-953"/>
<text text-anchor="middle" x="503.37" y="-931.7" font-family="Courier,monospace" font-size="11.00">EmpyrServiceProvider</text>
</g>
<!-- \\Illuminate\\Support\\ServiceProvider -->
<g id="node17" class="node">
<title>\\Illuminate\\Support\\ServiceProvider</title>
<ellipse fill="none" stroke="black" cx="168.78" cy="-935" rx="138.61" ry="18"/>
<text text-anchor="middle" x="168.78" y="-930.8" font-family="Times,serif" font-size="14.00" fill="gray">\Illuminate\Support\ServiceProvider</text>
</g>
<!-- \\Linusx\\Empyr\\Providers\\EmpyrServiceProvider&#45;&gt;\\Illuminate\\Support\\ServiceProvider -->
<g id="edge1" class="edge">
<title>\\Linusx\\Empyr\\Providers\\EmpyrServiceProvider&#45;&gt;\\Illuminate\\Support\\ServiceProvider</title>
<path fill="none" stroke="black" d="M428.97,-935C396.22,-935 356.39,-935 317.88,-935"/>
<polygon fill="none" stroke="black" points="317.6,-931.5 307.6,-935 317.6,-938.5 317.6,-931.5"/>
</g>
<!-- \\Linusx\\Empyr\\Exceptions\\EmpyrMissingRequiredFields -->
<g id="node2" class="node">
<title>\\Linusx\\Empyr\\Exceptions\\EmpyrMissingRequiredFields</title>
<polygon fill="none" stroke="black" points="597,-874 409.75,-874 409.75,-838 597,-838 597,-874"/>
<text text-anchor="middle" x="503.37" y="-852.7" font-family="Courier,monospace" font-size="11.00">EmpyrMissingRequiredFields</text>
</g>
<!-- \\Exception -->
<g id="node18" class="node">
<title>\\Exception</title>
<ellipse fill="none" stroke="black" cx="168.78" cy="-829" rx="48.33" ry="18"/>
<text text-anchor="middle" x="168.78" y="-824.8" font-family="Times,serif" font-size="14.00" fill="gray">\Exception</text>
</g>
<!-- \\Linusx\\Empyr\\Exceptions\\EmpyrMissingRequiredFields&#45;&gt;\\Exception -->
<g id="edge2" class="edge">
<title>\\Linusx\\Empyr\\Exceptions\\EmpyrMissingRequiredFields&#45;&gt;\\Exception</title>
<path fill="none" stroke="black" d="M409.73,-848.48C350.93,-843.71 276.73,-837.68 226.53,-833.61"/>
<polygon fill="none" stroke="black" points="226.75,-830.11 216.5,-832.79 226.19,-837.09 226.75,-830.11"/>
</g>
<!-- \\Linusx\\Empyr\\Exceptions\\EmpyrNotPartnerCredentials -->
<g id="node3" class="node">
<title>\\Linusx\\Empyr\\Exceptions\\EmpyrNotPartnerCredentials</title>
<polygon fill="none" stroke="black" points="597,-820 409.75,-820 409.75,-784 597,-784 597,-820"/>
<text text-anchor="middle" x="503.37" y="-798.7" font-family="Courier,monospace" font-size="11.00">EmpyrNotPartnerCredentials</text>
</g>
<!-- \\Linusx\\Empyr\\Exceptions\\EmpyrNotPartnerCredentials&#45;&gt;\\Exception -->
<g id="edge3" class="edge">
<title>\\Linusx\\Empyr\\Exceptions\\EmpyrNotPartnerCredentials&#45;&gt;\\Exception</title>
<path fill="none" stroke="black" d="M409.73,-809.52C350.93,-814.29 276.73,-820.32 226.53,-824.39"/>
<polygon fill="none" stroke="black" points="226.19,-820.91 216.5,-825.21 226.75,-827.89 226.19,-820.91"/>
</g>
<!-- \\Linusx\\Empyr\\Facades\\EmpyrPartner -->
<g id="node4" class="node">
<title>\\Linusx\\Empyr\\Facades\\EmpyrPartner</title>
<polygon fill="none" stroke="black" points="551.09,-741 455.66,-741 455.66,-705 551.09,-705 551.09,-741"/>
<text text-anchor="middle" x="503.37" y="-719.7" font-family="Courier,monospace" font-size="11.00">EmpyrPartner</text>
</g>
<!-- \\Illuminate\\Support\\Facades\\Facade -->
<g id="node19" class="node">
<title>\\Illuminate\\Support\\Facades\\Facade</title>
<ellipse fill="none" stroke="black" cx="168.78" cy="-696" rx="137.62" ry="18"/>
<text text-anchor="middle" x="168.78" y="-691.8" font-family="Times,serif" font-size="14.00" fill="gray">\Illuminate\Support\Facades\Facade</text>
</g>
<!-- \\Linusx\\Empyr\\Facades\\EmpyrPartner&#45;&gt;\\Illuminate\\Support\\Facades\\Facade -->
<g id="edge4" class="edge">
<title>\\Linusx\\Empyr\\Facades\\EmpyrPartner&#45;&gt;\\Illuminate\\Support\\Facades\\Facade</title>
<path fill="none" stroke="black" d="M455.43,-719.19C414.21,-715.84 352.32,-710.82 296.68,-706.3"/>
<polygon fill="none" stroke="black" points="296.62,-702.79 286.37,-705.46 296.05,-709.76 296.62,-702.79"/>
</g>
<!-- \\Linusx\\Empyr\\Facades\\Empyr -->
<g id="node5" class="node">
<title>\\Linusx\\Empyr\\Facades\\Empyr</title>
<polygon fill="none" stroke="black" points="530.37,-687 476.37,-687 476.37,-651 530.37,-651 530.37,-687"/>
<text text-anchor="middle" x="503.37" y="-665.7" font-family="Courier,monospace" font-size="11.00">Empyr</text>
</g>
<!-- \\Linusx\\Empyr\\Facades\\Empyr&#45;&gt;\\Illuminate\\Support\\Facades\\Facade -->
<g id="edge5" class="edge">
<title>\\Linusx\\Empyr\\Facades\\Empyr&#45;&gt;\\Illuminate\\Support\\Facades\\Facade</title>
<path fill="none" stroke="black" d="M476.28,-671.12C437.6,-674.26 362.52,-680.35 296.34,-685.73"/>
<polygon fill="none" stroke="black" points="295.91,-682.25 286.23,-686.55 296.48,-689.23 295.91,-682.25"/>
</g>
<!-- \\Linusx\\Empyr\\Controllers\\EmpyrPayment -->
<g id="node6" class="node">
<title>\\Linusx\\Empyr\\Controllers\\EmpyrPayment</title>
<polygon fill="none" stroke="black" points="551.09,-608 455.66,-608 455.66,-572 551.09,-572 551.09,-608"/>
<text text-anchor="middle" x="503.37" y="-586.7" font-family="Courier,monospace" font-size="11.00">EmpyrPayment</text>
</g>
<!-- \\Linusx\\Empyr\\Controllers\\EmpyrController -->
<g id="node20" class="node">
<title>\\Linusx\\Empyr\\Controllers\\EmpyrController</title>
<ellipse fill="none" stroke="black" cx="168.78" cy="-347" rx="168.56" ry="18"/>
<text text-anchor="middle" x="168.78" y="-342.8" font-family="Times,serif" font-size="14.00" fill="gray">\Linusx\Empyr\Controllers\EmpyrController</text>
</g>
<!-- \\Linusx\\Empyr\\Controllers\\EmpyrPayment&#45;&gt;\\Linusx\\Empyr\\Controllers\\EmpyrController -->
<g id="edge6" class="edge">
<title>\\Linusx\\Empyr\\Controllers\\EmpyrPayment&#45;&gt;\\Linusx\\Empyr\\Controllers\\EmpyrController</title>
<path fill="none" stroke="black" d="M455.59,-586.47C431.12,-583.04 401.37,-576.29 377.56,-563 291.54,-515.01 219.12,-419.88 187.23,-373.57"/>
<polygon fill="none" stroke="black" points="190.09,-371.56 181.57,-365.25 184.3,-375.49 190.09,-371.56"/>
</g>
<!-- \\Linusx\\Empyr\\Controllers\\EmpyrFundraiser -->
<g id="node7" class="node">
<title>\\Linusx\\Empyr\\Controllers\\EmpyrFundraiser</title>
<polygon fill="none" stroke="black" points="560.89,-554 445.86,-554 445.86,-518 560.89,-518 560.89,-554"/>
<text text-anchor="middle" x="503.37" y="-532.7" font-family="Courier,monospace" font-size="11.00">EmpyrFundraiser</text>
</g>
<!-- \\Linusx\\Empyr\\Controllers\\EmpyrFundraiser&#45;&gt;\\Linusx\\Empyr\\Controllers\\EmpyrController -->
<g id="edge7" class="edge">
<title>\\Linusx\\Empyr\\Controllers\\EmpyrFundraiser&#45;&gt;\\Linusx\\Empyr\\Controllers\\EmpyrController</title>
<path fill="none" stroke="black" d="M445.65,-529.25C423.67,-525.24 398.74,-518.91 377.56,-509 303.1,-474.16 230.79,-408.4 194.3,-372.3"/>
<polygon fill="none" stroke="black" points="196.61,-369.67 187.07,-365.07 191.66,-374.62 196.61,-369.67"/>
</g>
<!-- \\Linusx\\Empyr\\Controllers\\EmpyrBillingAccounts -->
<g id="node8" class="node">
<title>\\Linusx\\Empyr\\Controllers\\EmpyrBillingAccounts</title>
<polygon fill="none" stroke="black" points="577.39,-500 429.35,-500 429.35,-464 577.39,-464 577.39,-500"/>
<text text-anchor="middle" x="503.37" y="-478.7" font-family="Courier,monospace" font-size="11.00">EmpyrBillingAccounts</text>
</g>
<!-- \\Linusx\\Empyr\\Controllers\\EmpyrBillingAccounts&#45;&gt;\\Linusx\\Empyr\\Controllers\\EmpyrController -->
<g id="edge8" class="edge">
<title>\\Linusx\\Empyr\\Controllers\\EmpyrBillingAccounts&#45;&gt;\\Linusx\\Empyr\\Controllers\\EmpyrController</title>
<path fill="none" stroke="black" d="M429.18,-469.58C412,-465.73 393.93,-460.91 377.56,-455 314.81,-432.36 247.13,-394.37 206.63,-370.01"/>
<polygon fill="none" stroke="black" points="208.29,-366.92 197.92,-364.73 204.66,-372.91 208.29,-366.92"/>
</g>
<!-- \\Linusx\\Empyr\\Controllers\\EmpyrSubscription -->
<g id="node9" class="node">
<title>\\Linusx\\Empyr\\Controllers\\EmpyrSubscription</title>
<polygon fill="none" stroke="black" points="567.59,-446 439.15,-446 439.15,-410 567.59,-410 567.59,-446"/>
<text text-anchor="middle" x="503.37" y="-424.7" font-family="Courier,monospace" font-size="11.00">EmpyrSubscription</text>
</g>
<!-- \\Linusx\\Empyr\\Controllers\\EmpyrSubscription&#45;&gt;\\Linusx\\Empyr\\Controllers\\EmpyrController -->
<g id="edge9" class="edge">
<title>\\Linusx\\Empyr\\Controllers\\EmpyrSubscription&#45;&gt;\\Linusx\\Empyr\\Controllers\\EmpyrController</title>
<path fill="none" stroke="black" d="M439.08,-414.84C419.34,-410.59 397.51,-405.75 377.56,-401 332,-390.16 281.12,-376.95 241.1,-366.31"/>
<polygon fill="none" stroke="black" points="242,-362.93 231.44,-363.74 240.2,-369.69 242,-362.93"/>
</g>
<!-- \\Linusx\\Empyr\\Controllers\\EmpyrVenue -->
<g id="node10" class="node">
<title>\\Linusx\\Empyr\\Controllers\\EmpyrVenue</title>
<polygon fill="none" stroke="black" points="544.38,-392 462.36,-392 462.36,-356 544.38,-356 544.38,-392"/>
<text text-anchor="middle" x="503.37" y="-370.7" font-family="Courier,monospace" font-size="11.00">EmpyrVenue</text>
</g>
<!-- \\Linusx\\Empyr\\Controllers\\EmpyrVenue&#45;&gt;\\Linusx\\Empyr\\Controllers\\EmpyrController -->
<g id="edge10" class="edge">
<title>\\Linusx\\Empyr\\Controllers\\EmpyrVenue&#45;&gt;\\Linusx\\Empyr\\Controllers\\EmpyrController</title>
<path fill="none" stroke="black" d="M462.25,-370.74C425.17,-367.73 367.78,-363.07 313.62,-358.68"/>
<polygon fill="none" stroke="black" points="313.8,-355.18 303.55,-357.86 313.24,-362.16 313.8,-355.18"/>
</g>
<!-- \\Linusx\\Empyr\\Controllers\\EmpyrUtility -->
<g id="node11" class="node">
<title>\\Linusx\\Empyr\\Controllers\\EmpyrUtility</title>
<polygon fill="none" stroke="black" points="551.09,-338 455.66,-338 455.66,-302 551.09,-302 551.09,-338"/>
<text text-anchor="middle" x="503.37" y="-316.7" font-family="Courier,monospace" font-size="11.00">EmpyrUtility</text>
</g>
<!-- \\Linusx\\Empyr\\Controllers\\EmpyrUtility&#45;&gt;\\Linusx\\Empyr\\Controllers\\EmpyrController -->
<g id="edge11" class="edge">
<title>\\Linusx\\Empyr\\Controllers\\EmpyrUtility&#45;&gt;\\Linusx\\Empyr\\Controllers\\EmpyrController</title>
<path fill="none" stroke="black" d="M455.43,-323.81C418.41,-326.82 364.72,-331.17 313.86,-335.3"/>
<polygon fill="none" stroke="black" points="313.41,-331.83 303.73,-336.13 313.98,-338.81 313.41,-331.83"/>
</g>
<!-- \\Linusx\\Empyr\\Controllers\\EmpyrOffer -->
<g id="node12" class="node">
<title>\\Linusx\\Empyr\\Controllers\\EmpyrOffer</title>
<polygon fill="none" stroke="black" points="544.38,-284 462.36,-284 462.36,-248 544.38,-248 544.38,-284"/>
<text text-anchor="middle" x="503.37" y="-262.7" font-family="Courier,monospace" font-size="11.00">EmpyrOffer</text>
</g>
<!-- \\Linusx\\Empyr\\Controllers\\EmpyrOffer&#45;&gt;\\Linusx\\Empyr\\Controllers\\EmpyrController -->
<g id="edge12" class="edge">
<title>\\Linusx\\Empyr\\Controllers\\EmpyrOffer&#45;&gt;\\Linusx\\Empyr\\Controllers\\EmpyrController</title>
<path fill="none" stroke="black" d="M462.09,-274.27C437.59,-279.42 405.71,-286.3 377.56,-293 332,-303.84 281.12,-317.05 241.1,-327.69"/>
<polygon fill="none" stroke="black" points="240.2,-324.31 231.44,-330.26 242,-331.07 240.2,-324.31"/>
</g>
<!-- \\Linusx\\Empyr\\Controllers\\EmpyrUser -->
<g id="node13" class="node">
<title>\\Linusx\\Empyr\\Controllers\\EmpyrUser</title>
<polygon fill="none" stroke="black" points="541.28,-230 465.46,-230 465.46,-194 541.28,-194 541.28,-230"/>
<text text-anchor="middle" x="503.37" y="-208.7" font-family="Courier,monospace" font-size="11.00">EmpyrUser</text>
</g>
<!-- \\Linusx\\Empyr\\Controllers\\EmpyrUser&#45;&gt;\\Linusx\\Empyr\\Controllers\\EmpyrController -->
<g id="edge13" class="edge">
<title>\\Linusx\\Empyr\\Controllers\\EmpyrUser&#45;&gt;\\Linusx\\Empyr\\Controllers\\EmpyrController</title>
<path fill="none" stroke="black" d="M465.61,-217.3C440.36,-221.58 406.34,-228.62 377.56,-239 314.81,-261.64 247.13,-299.63 206.63,-323.99"/>
<polygon fill="none" stroke="black" points="204.66,-321.09 197.92,-329.27 208.29,-327.08 204.66,-321.09"/>
</g>
<!-- \\Linusx\\Empyr\\Controllers\\EmpyrReport -->
<g id="node14" class="node">
<title>\\Linusx\\Empyr\\Controllers\\EmpyrReport</title>
<polygon fill="none" stroke="black" points="547.49,-176 459.26,-176 459.26,-140 547.49,-140 547.49,-176"/>
<text text-anchor="middle" x="503.37" y="-154.7" font-family="Courier,monospace" font-size="11.00">EmpyrReport</text>
</g>
<!-- \\Linusx\\Empyr\\Controllers\\EmpyrReport&#45;&gt;\\Linusx\\Empyr\\Controllers\\EmpyrController -->
<g id="edge14" class="edge">
<title>\\Linusx\\Empyr\\Controllers\\EmpyrReport&#45;&gt;\\Linusx\\Empyr\\Controllers\\EmpyrController</title>
<path fill="none" stroke="black" d="M459.24,-162.48C434.47,-166.22 403.26,-172.97 377.56,-185 303.1,-219.84 230.79,-285.6 194.3,-321.7"/>
<polygon fill="none" stroke="black" points="191.66,-319.38 187.07,-328.93 196.61,-324.33 191.66,-319.38"/>
</g>
<!-- \\Linusx\\Empyr\\Controllers\\EmpyrInvoice -->
<g id="node15" class="node">
<title>\\Linusx\\Empyr\\Controllers\\EmpyrInvoice</title>
<polygon fill="none" stroke="black" points="551.09,-122 455.66,-122 455.66,-86 551.09,-86 551.09,-122"/>
<text text-anchor="middle" x="503.37" y="-100.7" font-family="Courier,monospace" font-size="11.00">EmpyrInvoice</text>
</g>
<!-- \\Linusx\\Empyr\\Controllers\\EmpyrInvoice&#45;&gt;\\Linusx\\Empyr\\Controllers\\EmpyrController -->
<g id="edge15" class="edge">
<title>\\Linusx\\Empyr\\Controllers\\EmpyrInvoice&#45;&gt;\\Linusx\\Empyr\\Controllers\\EmpyrController</title>
<path fill="none" stroke="black" d="M455.59,-107.53C431.12,-110.96 401.37,-117.71 377.56,-131 291.54,-178.99 219.12,-274.12 187.23,-320.43"/>
<polygon fill="none" stroke="black" points="184.3,-318.51 181.57,-328.75 190.09,-322.44 184.3,-318.51"/>
</g>
<!-- \\Linusx\\Empyr\\Empyr -->
<g id="node16" class="node">
<title>\\Linusx\\Empyr\\Empyr</title>
<polygon fill="none" stroke="black" points="530.37,-68 476.37,-68 476.37,-32 530.37,-32 530.37,-68"/>
<text text-anchor="middle" x="503.37" y="-46.7" font-family="Courier,monospace" font-size="11.00">Empyr</text>
</g>
</g>
</svg>
