<?xml version="1.0" encoding="UTF-8" standalone="no"?>
<!DOCTYPE svg PUBLIC "-//W3C//DTD SVG 1.1//EN"
 "http://www.w3.org/Graphics/SVG/1.1/DTD/svg11.dtd">
<!-- Generated by graphviz version 2.43.0 (0)
 -->
<!-- Title: G Pages: 1 -->
<svg width="645pt" height="1077pt"
 viewBox="0.00 0.00 645.19 1077.00" xmlns="http://www.w3.org/2000/svg" xmlns:xlink="http://www.w3.org/1999/xlink">
<g id="graph0" class="graph" transform="scale(1 1) rotate(0) translate(4 1073)">
<title>G</title>
<polygon fill="white" stroke="transparent" points="-4,4 -4,-1073 641.19,-1073 641.19,4 -4,4"/>
<g id="clust1" class="cluster">
<title>cluster_Global</title>
<path fill="none" stroke="gray" d="M389.56,-8C389.56,-8 617.19,-8 617.19,-8 623.19,-8 629.19,-14 629.19,-20 629.19,-20 629.19,-1049 629.19,-1049 629.19,-1055 623.19,-1061 617.19,-1061 617.19,-1061 389.56,-1061 389.56,-1061 383.56,-1061 377.56,-1055 377.56,-1049 377.56,-1049 377.56,-20 377.56,-20 377.56,-14 383.56,-8 389.56,-8"/>
<text text-anchor="middle" x="503.37" y="-1048.2" font-family="Times,serif" font-size="11.00" fill="gray">Global</text>
</g>
<g id="clust2" class="cluster">
<title>cluster_\Linusx</title>
<path fill="none" stroke="gray" d="M397.56,-16C397.56,-16 609.19,-16 609.19,-16 615.19,-16 621.19,-22 621.19,-28 621.19,-28 621.19,-1022 621.19,-1022 621.19,-1028 615.19,-1034 609.19,-1034 609.19,-1034 397.56,-1034 397.56,-1034 391.56,-1034 385.56,-1028 385.56,-1022 385.56,-1022 385.56,-28 385.56,-28 385.56,-22 391.56,-16 397.56,-16"/>
<text text-anchor="middle" x="503.37" y="-1021.2" font-family="Times,serif" font-size="11.00" fill="gray">Linusx</text>
</g>
<g id="clust3" class="cluster">
<title>cluster_\Linusx\Empyr</title>
<path fill="none" stroke="gray" d="M405.56,-24C405.56,-24 601.19,-24 601.19,-24 607.19,-24 613.19,-30 613.19,-36 613.19,-36 613.19,-995 613.19,-995 613.19,-1001 607.19,-1007 601.19,-1007 601.19,-1007 405.56,-1007 405.56,-1007 399.56,-1007 393.56,-1001 393.56,-995 393.56,-995 393.56,-36 393.56,-36 393.56,-30 399.56,-24 405.56,-24"/>
<text text-anchor="middle" x="503.37" y="-994.2" font-family="Times,serif" font-size="11.00" fill="gray">Empyr</text>
</g>
<g id="clust4" class="cluster">
<title>cluster_\Linusx\Empyr\Controllers</title>
<path fill="none" stroke="gray" d="M433.36,-423C433.36,-423 573.38,-423 573.38,-423 579.38,-423 585.38,-429 585.38,-435 585.38,-435 585.38,-968 585.38,-968 585.38,-974 579.38,-980 573.38,-980 573.38,-980 433.36,-980 433.36,-980 427.36,-980 421.36,-974 421.36,-968 421.36,-968 421.36,-435 421.36,-435 421.36,-429 427.36,-423 433.36,-423"/>
<text text-anchor="middle" x="503.37" y="-967.2" font-family="Times,serif" font-size="11.00" fill="gray">Controllers</text>
</g>
<g id="clust5" class="cluster">
<title>cluster_\Linusx\Empyr\Facades</title>
<path fill="none" stroke="gray" d="M459.77,-290C459.77,-290 546.98,-290 546.98,-290 552.98,-290 558.98,-296 558.98,-302 558.98,-302 558.98,-403 558.98,-403 558.98,-409 552.98,-415 546.98,-415 546.98,-415 459.77,-415 459.77,-415 453.77,-415 447.77,-409 447.77,-403 447.77,-403 447.77,-302 447.77,-302 447.77,-296 453.77,-290 459.77,-290"/>
<text text-anchor="middle" x="503.37" y="-402.2" font-family="Times,serif" font-size="11.00" fill="gray">Facades</text>
</g>
<g id="clust6" class="cluster">
<title>cluster_\Linusx\Empyr\Exceptions</title>
<path fill="none" stroke="gray" d="M413.56,-157C413.56,-157 593.19,-157 593.19,-157 599.19,-157 605.19,-163 605.19,-169 605.19,-169 605.19,-270 605.19,-270 605.19,-276 599.19,-282 593.19,-282 593.19,-282 413.56,-282 413.56,-282 407.56,-282 401.56,-276 401.56,-270 401.56,-270 401.56,-169 401.56,-169 401.56,-163 407.56,-157 413.56,-157"/>
<text text-anchor="middle" x="503.37" y="-269.2" font-family="Times,serif" font-size="11.00" fill="gray">Exceptions</text>
</g>
<g id="clust7" class="cluster">
<title>cluster_\Linusx\Empyr\Providers</title>
<path fill="none" stroke="gray" d="M433.36,-78C433.36,-78 573.38,-78 573.38,-78 579.38,-78 585.38,-84 585.38,-90 585.38,-90 585.38,-137 585.38,-137 585.38,-143 579.38,-149 573.38,-149 573.38,-149 433.36,-149 433.36,-149 427.36,-149 421.36,-143 421.36,-137 421.36,-137 421.36,-90 421.36,-90 421.36,-84 427.36,-78 433.36,-78"/>
<text text-anchor="middle" x="503.37" y="-136.2" font-family="Times,serif" font-size="11.00" fill="gray">Providers</text>
</g>
<!-- \\Linusx\\Empyr\\Controllers\\EmpyrOffer -->
<g id="node1" class="node">
<title>\\Linusx\\Empyr\\Controllers\\EmpyrOffer</title>
<polygon fill="none" stroke="black" points="544.38,-953 462.36,-953 462.36,-917 544.38,-917 544.38,-953"/>
<text text-anchor="middle" x="503.37" y="-931.7" font-family="Courier,monospace" font-size="11.00">EmpyrOffer</text>
</g>
<!-- \\Linusx\\Empyr\\Controllers\\EmpyrController -->
<g id="node17" class="node">
<title>\\Linusx\\Empyr\\Controllers\\EmpyrController</title>
<ellipse fill="none" stroke="black" cx="168.78" cy="-692" rx="168.56" ry="18"/>
<text text-anchor="middle" x="168.78" y="-687.8" font-family="Times,serif" font-size="14.00" fill="gray">\Linusx\Empyr\Controllers\EmpyrController</text>
</g>
<!-- \\Linusx\\Empyr\\Controllers\\EmpyrOffer&#45;&gt;\\Linusx\\Empyr\\Controllers\\EmpyrController -->
<g id="edge1" class="edge">
<title>\\Linusx\\Empyr\\Controllers\\EmpyrOffer&#45;&gt;\\Linusx\\Empyr\\Controllers\\EmpyrController</title>
<path fill="none" stroke="black" d="M462.31,-932.35C436.73,-929.24 403.6,-922.53 377.56,-908 291.54,-860.01 219.12,-764.88 187.23,-718.57"/>
<polygon fill="none" stroke="black" points="190.09,-716.56 181.57,-710.25 184.3,-720.49 190.09,-716.56"/>
</g>
<!-- \\Linusx\\Empyr\\Controllers\\EmpyrInvoice -->
<g id="node2" class="node">
<title>\\Linusx\\Empyr\\Controllers\\EmpyrInvoice</title>
<polygon fill="none" stroke="black" points="551.09,-899 455.66,-899 455.66,-863 551.09,-863 551.09,-899"/>
<text text-anchor="middle" x="503.37" y="-877.7" font-family="Courier,monospace" font-size="11.00">EmpyrInvoice</text>
</g>
<!-- \\Linusx\\Empyr\\Controllers\\EmpyrInvoice&#45;&gt;\\Linusx\\Empyr\\Controllers\\EmpyrController -->
<g id="edge3" class="edge">
<title>\\Linusx\\Empyr\\Controllers\\EmpyrInvoice&#45;&gt;\\Linusx\\Empyr\\Controllers\\EmpyrController</title>
<path fill="none" stroke="black" d="M455.72,-875.97C431.55,-872.13 402.06,-865.46 377.56,-854 303.1,-819.16 230.79,-753.4 194.3,-717.3"/>
<polygon fill="none" stroke="black" points="196.61,-714.67 187.07,-710.07 191.66,-719.62 196.61,-714.67"/>
</g>
<!-- \\Linusx\\Empyr\\Controllers\\EmpyrUser -->
<g id="node3" class="node">
<title>\\Linusx\\Empyr\\Controllers\\EmpyrUser</title>
<polygon fill="none" stroke="black" points="541.28,-845 465.46,-845 465.46,-809 541.28,-809 541.28,-845"/>
<text text-anchor="middle" x="503.37" y="-823.7" font-family="Courier,monospace" font-size="11.00">EmpyrUser</text>
</g>
<!-- \\Linusx\\Empyr\\Controllers\\EmpyrUser&#45;&gt;\\Linusx\\Empyr\\Controllers\\EmpyrController -->
<g id="edge4" class="edge">
<title>\\Linusx\\Empyr\\Controllers\\EmpyrUser&#45;&gt;\\Linusx\\Empyr\\Controllers\\EmpyrController</title>
<path fill="none" stroke="black" d="M465.61,-821.7C440.36,-817.42 406.34,-810.38 377.56,-800 314.81,-777.36 247.13,-739.37 206.63,-715.01"/>
<polygon fill="none" stroke="black" points="208.29,-711.92 197.92,-709.73 204.66,-717.91 208.29,-711.92"/>
</g>
<!-- \\Linusx\\Empyr\\Controllers\\EmpyrPayment -->
<g id="node4" class="node">
<title>\\Linusx\\Empyr\\Controllers\\EmpyrPayment</title>
<polygon fill="none" stroke="black" points="551.09,-791 455.66,-791 455.66,-755 551.09,-755 551.09,-791"/>
<text text-anchor="middle" x="503.37" y="-769.7" font-family="Courier,monospace" font-size="11.00">EmpyrPayment</text>
</g>
<!-- \\Linusx\\Empyr\\Controllers\\EmpyrPayment&#45;&gt;\\Linusx\\Empyr\\Controllers\\EmpyrController -->
<g id="edge6" class="edge">
<title>\\Linusx\\Empyr\\Controllers\\EmpyrPayment&#45;&gt;\\Linusx\\Empyr\\Controllers\\EmpyrController</title>
<path fill="none" stroke="black" d="M455.74,-763.39C432.24,-758.42 403.33,-752.13 377.56,-746 332,-735.16 281.12,-721.95 241.1,-711.31"/>
<polygon fill="none" stroke="black" points="242,-707.93 231.44,-708.74 240.2,-714.69 242,-707.93"/>
</g>
<!-- \\Linusx\\Empyr\\Controllers\\EmpyrSubscription -->
<g id="node5" class="node">
<title>\\Linusx\\Empyr\\Controllers\\EmpyrSubscription</title>
<polygon fill="none" stroke="black" points="567.59,-737 439.15,-737 439.15,-701 567.59,-701 567.59,-737"/>
<text text-anchor="middle" x="503.37" y="-715.7" font-family="Courier,monospace" font-size="11.00">EmpyrSubscription</text>
</g>
<!-- \\Linusx\\Empyr\\Controllers\\EmpyrSubscription&#45;&gt;\\Linusx\\Empyr\\Controllers\\EmpyrController -->
<g id="edge7" class="edge">
<title>\\Linusx\\Empyr\\Controllers\\EmpyrSubscription&#45;&gt;\\Linusx\\Empyr\\Controllers\\EmpyrController</title>
<path fill="none" stroke="black" d="M439.03,-713.86C403.45,-710.97 357.5,-707.24 313.66,-703.68"/>
<polygon fill="none" stroke="black" points="313.71,-700.17 303.46,-702.85 313.15,-707.15 313.71,-700.17"/>
</g>
<!-- \\Linusx\\Empyr\\Controllers\\EmpyrVenue -->
<g id="node6" class="node">
<title>\\Linusx\\Empyr\\Controllers\\EmpyrVenue</title>
<polygon fill="none" stroke="black" points="544.38,-683 462.36,-683 462.36,-647 544.38,-647 544.38,-683"/>
<text text-anchor="middle" x="503.37" y="-661.7" font-family="Courier,monospace" font-size="11.00">EmpyrVenue</text>
</g>
<!-- \\Linusx\\Empyr\\Controllers\\EmpyrVenue&#45;&gt;\\Linusx\\Empyr\\Controllers\\EmpyrController -->
<g id="edge8" class="edge">
<title>\\Linusx\\Empyr\\Controllers\\EmpyrVenue&#45;&gt;\\Linusx\\Empyr\\Controllers\\EmpyrController</title>
<path fill="none" stroke="black" d="M462.25,-668.26C425.17,-671.27 367.78,-675.93 313.62,-680.32"/>
<polygon fill="none" stroke="black" points="313.24,-676.84 303.55,-681.14 313.8,-683.82 313.24,-676.84"/>
</g>
<!-- \\Linusx\\Empyr\\Controllers\\EmpyrUtility -->
<g id="node7" class="node">
<title>\\Linusx\\Empyr\\Controllers\\EmpyrUtility</title>
<polygon fill="none" stroke="black" points="551.09,-629 455.66,-629 455.66,-593 551.09,-593 551.09,-629"/>
<text text-anchor="middle" x="503.37" y="-607.7" font-family="Courier,monospace" font-size="11.00">EmpyrUtility</text>
</g>
<!-- \\Linusx\\Empyr\\Controllers\\EmpyrUtility&#45;&gt;\\Linusx\\Empyr\\Controllers\\EmpyrController -->
<g id="edge10" class="edge">
<title>\\Linusx\\Empyr\\Controllers\\EmpyrUtility&#45;&gt;\\Linusx\\Empyr\\Controllers\\EmpyrController</title>
<path fill="none" stroke="black" d="M455.74,-620.61C432.24,-625.58 403.33,-631.87 377.56,-638 332,-648.84 281.12,-662.05 241.1,-672.69"/>
<polygon fill="none" stroke="black" points="240.2,-669.31 231.44,-675.26 242,-676.07 240.2,-669.31"/>
</g>
<!-- \\Linusx\\Empyr\\Controllers\\EmpyrFundraiser -->
<g id="node8" class="node">
<title>\\Linusx\\Empyr\\Controllers\\EmpyrFundraiser</title>
<polygon fill="none" stroke="black" points="560.89,-575 445.86,-575 445.86,-539 560.89,-539 560.89,-575"/>
<text text-anchor="middle" x="503.37" y="-553.7" font-family="Courier,monospace" font-size="11.00">EmpyrFundraiser</text>
</g>
<!-- \\Linusx\\Empyr\\Controllers\\EmpyrFundraiser&#45;&gt;\\Linusx\\Empyr\\Controllers\\EmpyrController -->
<g id="edge11" class="edge">
<title>\\Linusx\\Empyr\\Controllers\\EmpyrFundraiser&#45;&gt;\\Linusx\\Empyr\\Controllers\\EmpyrController</title>
<path fill="none" stroke="black" d="M445.56,-565.98C423.91,-570.25 399.25,-576.18 377.56,-584 314.81,-606.64 247.13,-644.63 206.63,-668.99"/>
<polygon fill="none" stroke="black" points="204.66,-666.09 197.92,-674.27 208.29,-672.08 204.66,-666.09"/>
</g>
<!-- \\Linusx\\Empyr\\Controllers\\EmpyrBillingAccounts -->
<g id="node9" class="node">
<title>\\Linusx\\Empyr\\Controllers\\EmpyrBillingAccounts</title>
<polygon fill="none" stroke="black" points="577.39,-521 429.35,-521 429.35,-485 577.39,-485 577.39,-521"/>
<text text-anchor="middle" x="503.37" y="-499.7" font-family="Courier,monospace" font-size="11.00">EmpyrBillingAccounts</text>
</g>
<!-- \\Linusx\\Empyr\\Controllers\\EmpyrBillingAccounts&#45;&gt;\\Linusx\\Empyr\\Controllers\\EmpyrController -->
<g id="edge14" class="edge">
<title>\\Linusx\\Empyr\\Controllers\\EmpyrBillingAccounts&#45;&gt;\\Linusx\\Empyr\\Controllers\\EmpyrController</title>
<path fill="none" stroke="black" d="M429.29,-513.08C411.84,-517.03 393.62,-522.48 377.56,-530 303.1,-564.84 230.79,-630.6 194.3,-666.7"/>
<polygon fill="none" stroke="black" points="191.66,-664.38 187.07,-673.93 196.61,-669.33 191.66,-664.38"/>
</g>
<!-- \\Linusx\\Empyr\\Controllers\\EmpyrReport -->
<g id="node10" class="node">
<title>\\Linusx\\Empyr\\Controllers\\EmpyrReport</title>
<polygon fill="none" stroke="black" points="547.49,-467 459.26,-467 459.26,-431 547.49,-431 547.49,-467"/>
<text text-anchor="middle" x="503.37" y="-445.7" font-family="Courier,monospace" font-size="11.00">EmpyrReport</text>
</g>
<!-- \\Linusx\\Empyr\\Controllers\\EmpyrReport&#45;&gt;\\Linusx\\Empyr\\Controllers\\EmpyrController -->
<g id="edge15" class="edge">
<title>\\Linusx\\Empyr\\Controllers\\EmpyrReport&#45;&gt;\\Linusx\\Empyr\\Controllers\\EmpyrController</title>
<path fill="none" stroke="black" d="M459.14,-452.05C434.03,-455.32 402.53,-462.07 377.56,-476 291.54,-523.99 219.12,-619.12 187.23,-665.43"/>
<polygon fill="none" stroke="black" points="184.3,-663.51 181.57,-673.75 190.09,-667.44 184.3,-663.51"/>
</g>
<!-- \\Linusx\\Empyr\\Facades\\Empyr -->
<g id="node11" class="node">
<title>\\Linusx\\Empyr\\Facades\\Empyr</title>
<polygon fill="none" stroke="black" points="530.37,-388 476.37,-388 476.37,-352 530.37,-352 530.37,-388"/>
<text text-anchor="middle" x="503.37" y="-366.7" font-family="Courier,monospace" font-size="11.00">Empyr</text>
</g>
<!-- \\Illuminate\\Support\\Facades\\Facade -->
<g id="node18" class="node">
<title>\\Illuminate\\Support\\Facades\\Facade</title>
<ellipse fill="none" stroke="black" cx="168.78" cy="-343" rx="137.62" ry="18"/>
<text text-anchor="middle" x="168.78" y="-338.8" font-family="Times,serif" font-size="14.00" fill="gray">\Illuminate\Support\Facades\Facade</text>
</g>
<!-- \\Linusx\\Empyr\\Facades\\Empyr&#45;&gt;\\Illuminate\\Support\\Facades\\Facade -->
<g id="edge2" class="edge">
<title>\\Linusx\\Empyr\\Facades\\Empyr&#45;&gt;\\Illuminate\\Support\\Facades\\Facade</title>
<path fill="none" stroke="black" d="M476.28,-367.88C437.6,-364.74 362.52,-358.65 296.34,-353.27"/>
<polygon fill="none" stroke="black" points="296.48,-349.77 286.23,-352.45 295.91,-356.75 296.48,-349.77"/>
</g>
<!-- \\Linusx\\Empyr\\Facades\\EmpyrPartner -->
<g id="node12" class="node">
<title>\\Linusx\\Empyr\\Facades\\EmpyrPartner</title>
<polygon fill="none" stroke="black" points="551.09,-334 455.66,-334 455.66,-298 551.09,-298 551.09,-334"/>
<text text-anchor="middle" x="503.37" y="-312.7" font-family="Courier,monospace" font-size="11.00">EmpyrPartner</text>
</g>
<!-- \\Linusx\\Empyr\\Facades\\EmpyrPartner&#45;&gt;\\Illuminate\\Support\\Facades\\Facade -->
<g id="edge5" class="edge">
<title>\\Linusx\\Empyr\\Facades\\EmpyrPartner&#45;&gt;\\Illuminate\\Support\\Facades\\Facade</title>
<path fill="none" stroke="black" d="M455.43,-319.81C414.21,-323.16 352.32,-328.18 296.68,-332.7"/>
<polygon fill="none" stroke="black" points="296.05,-329.24 286.37,-333.54 296.62,-336.21 296.05,-329.24"/>
</g>
<!-- \\Linusx\\Empyr\\Exceptions\\EmpyrMissingRequiredFields -->
<g id="node13" class="node">
<title>\\Linusx\\Empyr\\Exceptions\\EmpyrMissingRequiredFields</title>
<polygon fill="none" stroke="black" points="597,-255 409.75,-255 409.75,-219 597,-219 597,-255"/>
<text text-anchor="middle" x="503.37" y="-233.7" font-family="Courier,monospace" font-size="11.00">EmpyrMissingRequiredFields</text>
</g>
<!-- \\Exception -->
<g id="node19" class="node">
<title>\\Exception</title>
<ellipse fill="none" stroke="black" cx="168.78" cy="-210" rx="48.33" ry="18"/>
<text text-anchor="middle" x="168.78" y="-205.8" font-family="Times,serif" font-size="14.00" fill="gray">\Exception</text>
</g>
<!-- \\Linusx\\Empyr\\Exceptions\\EmpyrMissingRequiredFields&#45;&gt;\\Exception -->
<g id="edge9" class="edge">
<title>\\Linusx\\Empyr\\Exceptions\\EmpyrMissingRequiredFields&#45;&gt;\\Exception</title>
<path fill="none" stroke="black" d="M409.73,-229.48C350.93,-224.71 276.73,-218.68 226.53,-214.61"/>
<polygon fill="none" stroke="black" points="226.75,-211.11 216.5,-213.79 226.19,-218.09 226.75,-211.11"/>
</g>
<!-- \\Linusx\\Empyr\\Exceptions\\EmpyrNotPartnerCredentials -->
<g id="node14" class="node">
<title>\\Linusx\\Empyr\\Exceptions\\EmpyrNotPartnerCredentials</title>
<polygon fill="none" stroke="black" points="597,-201 409.75,-201 409.75,-165 597,-165 597,-201"/>
<text text-anchor="middle" x="503.37" y="-179.7" font-family="Courier,monospace" font-size="11.00">EmpyrNotPartnerCredentials</text>
</g>
<!-- \\Linusx\\Empyr\\Exceptions\\EmpyrNotPartnerCredentials&#45;&gt;\\Exception -->
<g id="edge13" class="edge">
<title>\\Linusx\\Empyr\\Exceptions\\EmpyrNotPartnerCredentials&#45;&gt;\\Exception</title>
<path fill="none" stroke="black" d="M409.73,-190.52C350.93,-195.29 276.73,-201.32 226.53,-205.39"/>
<polygon fill="none" stroke="black" points="226.19,-201.91 216.5,-206.21 226.75,-208.89 226.19,-201.91"/>
</g>
<!-- \\Linusx\\Empyr\\Providers\\EmpyrServiceProvider -->
<g id="node15" class="node">
<title>\\Linusx\\Empyr\\Providers\\EmpyrServiceProvider</title>
<polygon fill="none" stroke="black" points="577.39,-122 429.35,-122 429.35,-86 577.39,-86 577.39,-122"/>
<text text-anchor="middle" x="503.37" y="-100.7" font-family="Courier,monospace" font-size="11.00">EmpyrServiceProvider</text>
</g>
<!-- \\Illuminate\\Support\\ServiceProvider -->
<g id="node20" class="node">
<title>\\Illuminate\\Support\\ServiceProvider</title>
<ellipse fill="none" stroke="black" cx="168.78" cy="-104" rx="138.61" ry="18"/>
<text text-anchor="middle" x="168.78" y="-99.8" font-family="Times,serif" font-size="14.00" fill="gray">\Illuminate\Support\ServiceProvider</text>
</g>
<!-- \\Linusx\\Empyr\\Providers\\EmpyrServiceProvider&#45;&gt;\\Illuminate\\Support\\ServiceProvider -->
<g id="edge12" class="edge">
<title>\\Linusx\\Empyr\\Providers\\EmpyrServiceProvider&#45;&gt;\\Illuminate\\Support\\ServiceProvider</title>
<path fill="none" stroke="black" d="M428.97,-104C396.22,-104 356.39,-104 317.88,-104"/>
<polygon fill="none" stroke="black" points="317.6,-100.5 307.6,-104 317.6,-107.5 317.6,-100.5"/>
</g>
<!-- \\Linusx\\Empyr\\Empyr -->
<g id="node16" class="node">
<title>\\Linusx\\Empyr\\Empyr</title>
<polygon fill="none" stroke="black" points="530.37,-68 476.37,-68 476.37,-32 530.37,-32 530.37,-68"/>
<text text-anchor="middle" x="503.37" y="-46.7" font-family="Courier,monospace" font-size="11.00">Empyr</text>
</g>
</g>
</svg>
